<!DOCTYPE svg PUBLIC "-//W3C//DTD SVG 20010904//EN" "http://www.w3.org/TR/2001/REC-SVG-20010904/DTD/svg10.dtd">
<svg version="1.0" xmlns="http://www.w3.org/2000/svg" width="532px" height="324px" viewBox="0 0 5320 3240" preserveAspectRatio="xMidYMid meet">
<g id="layer1" fill="#000000" stroke="none">
 <path d="M496 3078 c-8 -18 -23 -85 -32 -148 -9 -63 -20 -119 -24 -125 -5 -5 -13 -53 -20 -105 -7 -52 -16 -99 -20 -105 -4 -5 -13 -50 -20 -100 -7 -49 -17 -95 -21 -101 -5 -6 -10 -32 -11 -58 l-3 -48 95 -51 c53 -29 108 -64 124 -79 27 -26 29 -31 23 -88 -7 -59 -38 -120 -61 -120 -6 0 -26 -16 -43 -35 -18 -19 -36 -35 -41 -35 -5 0 -17 -10 -28 -21 -10 -12 -34 -28 -51 -36 -18 -7 -33 -17 -33 -21 0 -4 -16 -14 -35 -21 -40 -14 -70 -52 -79 -101 -17 -87 -30 -137 -42 -165 -7 -16 -15 -51 -19 -78 -4 -26 -11 -50 -15 -52 -5 -3 -14 -31 -20 -63 -7 -31 -16 -61 -20 -67 -12 -15 -32 -123 -25 -134 3 -6 22 -13 43 -16 20 -3 44 -10 52 -14 8 -4 69 -16 135 -26 66 -10 125 -21 130 -25 6 -4 51 -13 100 -20 50 -7 95 -16 100 -21 6 -4 62 -14 125 -24 63 -9 122 -20 131 -25 9 -5 54 -14 100 -21 46 -6 89 -15 94 -19 6 -4 51 -13 100 -20 50 -7 95 -16 100 -21 6 -4 62 -14 125 -24 63 -9 122 -20 131 -25 9 -5 54 -14 100 -21 46 -6 89 -15 94 -19 6 -4 51 -13 100 -20 50 -7 95 -16 100 -21 6 -4 62 -14 125 -24 63 -9 122 -20 131 -25 9 -5 54 -14 100 -21 46 -6 89 -15 94 -19 6 -4 53 -13 105 -20 52 -7 100 -16 105 -20 6 -4 64 -15 130 -25 66 -10 125 -21 130 -25 6 -4 51 -13 100 -20 50 -7 95 -17 100 -21 6 -4 48 -13 95 -19 47 -7 90 -16 95 -20 6 -4 64 -15 130 -25 66 -10 125 -21 130 -25 6 -4 51 -13 100 -20 50 -7 95 -17 100 -21 6 -4 48 -13 95 -19 47 -7 90 -16 95 -20 6 -4 64 -15 130 -25 66 -10 125 -21 130 -25 6 -4 51 -13 100 -20 50 -7 95 -16 100 -21 6 -4 46 -12 90 -18 44 -7 89 -16 100 -21 11 -5 67 -16 125 -25 l104 -16 17 22 c9 13 22 57 29 98 7 42 15 81 20 86 4 6 13 48 20 95 8 47 17 90 21 95 4 6 15 53 24 105 9 52 20 102 24 111 5 8 14 42 21 75 6 32 17 73 25 89 7 17 16 50 20 75 4 25 11 50 15 55 4 6 15 53 25 105 10 52 21 100 26 105 4 6 13 42 20 80 6 39 15 75 19 80 5 6 13 46 20 90 7 44 16 85 20 90 5 6 16 55 25 110 9 55 22 106 29 114 14 18 12 239 -3 254 -6 6 -11 19 -11 29 0 22 -29 38 -69 38 -16 0 -32 4 -35 9 -3 4 -59 16 -123 25 -65 9 -125 21 -134 26 -9 5 -54 14 -100 21 -46 6 -88 15 -94 19 -5 4 -50 13 -100 20 -49 7 -94 16 -100 21 -5 4 -62 14 -125 24 -63 9 -122 20 -131 25 -9 4 -51 13 -95 20 -43 7 -83 15 -89 20 -5 4 -50 13 -100 20 -49 7 -94 16 -100 21 -5 4 -62 14 -125 24 -63 9 -122 20 -131 25 -9 5 -54 14 -100 21 -46 6 -88 15 -94 19 -5 4 -50 13 -100 20 -49 7 -94 16 -100 21 -5 4 -62 14 -125 24 -63 9 -122 20 -131 25 -9 5 -54 14 -100 21 -46 6 -88 15 -94 19 -5 4 -50 13 -100 20 -49 7 -94 16 -100 21 -5 4 -62 14 -125 24 -63 9 -122 20 -131 25 -9 5 -54 14 -100 21 -46 6 -88 15 -94 19 -5 4 -50 13 -100 20 -49 7 -94 16 -100 20 -5 4 -59 16 -120 25 -60 10 -114 21 -120 25 -5 4 -50 13 -100 20 -49 7 -94 17 -100 21 -5 4 -48 13 -95 19 -47 7 -89 16 -95 20 -5 4 -64 15 -130 25 -66 10 -124 21 -130 25 -5 4 -50 13 -100 20 -49 7 -94 17 -100 21 -5 4 -48 13 -95 19 -47 7 -89 16 -94 21 -20 18 -45 8 -60 -23z m624 -340 c8 -4 69 -14 135 -24 66 -9 125 -20 130 -24 6 -4 53 -14 105 -21 52 -7 100 -16 105 -20 6 -4 48 -13 95 -19 47 -7 90 -16 95 -20 6 -4 66 -15 135 -25 69 -9 132 -20 141 -25 9 -5 54 -14 100 -21 46 -6 89 -15 94 -19 6 -4 53 -14 105 -21 52 -7 100 -16 105 -20 6 -3 64 -14 130 -24 66 -10 125 -21 130 -25 6 -4 53 -13 105 -20 52 -7 100 -16 105 -21 6 -4 48 -13 95 -19 47 -7 90 -16 95 -20 6 -4 69 -15 140 -25 72 -10 135 -21 140 -25 6 -5 48 -14 95 -20 47 -7 90 -16 95 -20 6 -4 53 -13 105 -20 52 -7 100 -16 105 -21 6 -4 64 -15 130 -24 66 -9 127 -20 135 -24 8 -5 56 -14 105 -21 50 -7 95 -16 100 -21 6 -4 64 -15 130 -24 66 -9 127 -20 135 -24 8 -5 56 -14 105 -21 50 -7 95 -17 100 -21 6 -4 51 -13 100 -20 50 -6 95 -15 100 -19 6 -4 35 -11 65 -15 94 -13 100 -17 89 -66 -6 -23 -12 -45 -14 -49 -5 -9 -145 8 -167 20 -9 5 -56 14 -105 21 -48 6 -92 15 -98 19 -5 4 -55 13 -110 20 -55 7 -104 16 -110 20 -5 4 -66 15 -135 25 -69 9 -134 20 -145 25 -11 5 -60 14 -110 21 -49 7 -94 15 -100 20 -5 4 -55 13 -110 20 -55 7 -104 16 -110 20 -5 4 -64 15 -130 24 -66 9 -129 20 -140 25 -11 5 -60 14 -110 20 -49 7 -99 16 -110 21 -11 5 -72 16 -135 24 -63 9 -124 20 -135 25 -11 5 -60 14 -110 21 -49 6 -94 15 -100 19 -5 4 -55 13 -110 20 -55 7 -104 16 -110 20 -5 4 -68 15 -140 25 -71 10 -134 21 -140 25 -5 5 -55 14 -110 21 -55 7 -105 16 -110 20 -6 4 -51 13 -100 20 -50 6 -94 15 -100 19 -5 4 -68 15 -140 25 -71 10 -134 21 -140 25 -5 4 -55 13 -110 20 -55 7 -105 17 -110 21 -6 4 -53 13 -105 20 -52 6 -99 15 -105 19 -18 14 -167 31 -180 20 -6 -5 -17 -47 -24 -92 -8 -46 -17 -87 -21 -93 -4 -5 -13 -41 -20 -80 -7 -38 -16 -74 -20 -80 -4 -5 -13 -44 -20 -85 -7 -41 -16 -79 -20 -85 -4 -5 -16 -55 -25 -110 -10 -55 -21 -104 -25 -110 -4 -5 -13 -44 -20 -85 -7 -41 -16 -79 -20 -85 -4 -5 -13 -44 -20 -85 -7 -41 -17 -80 -21 -85 -4 -6 -15 -55 -25 -110 -9 -55 -21 -106 -27 -113 -18 -23 29 -49 110 -61 41 -6 85 -11 98 -11 13 0 26 -4 29 -9 3 -4 59 -16 123 -25 65 -9 125 -21 135 -26 9 -5 56 -14 105 -21 48 -7 93 -15 98 -19 6 -4 51 -13 100 -20 50 -7 95 -16 100 -21 6 -4 64 -15 130 -24 66 -9 127 -20 135 -24 8 -5 56 -14 105 -21 50 -7 95 -17 100 -21 6 -4 67 -15 135 -25 69 -9 130 -20 135 -24 6 -4 51 -13 100 -20 50 -7 95 -17 100 -21 6 -4 51 -13 100 -20 50 -6 95 -15 100 -19 6 -4 64 -15 130 -25 66 -10 125 -21 130 -25 6 -4 53 -14 105 -21 52 -7 100 -16 105 -20 6 -3 51 -12 100 -19 50 -7 95 -17 100 -21 6 -4 64 -15 130 -24 66 -9 127 -20 136 -25 9 -5 54 -14 100 -21 46 -6 89 -15 94 -19 6 -4 53 -14 105 -21 52 -7 100 -16 105 -20 6 -3 64 -14 130 -24 66 -10 125 -21 130 -25 6 -4 51 -13 100 -20 50 -6 99 -16 110 -20 11 -5 40 -12 65 -15 81 -11 82 -12 65 -45 -13 -26 -18 -28 -57 -23 -24 3 -47 9 -53 13 -5 4 -64 15 -130 24 -66 10 -129 21 -140 26 -11 5 -60 14 -110 21 -49 7 -95 16 -100 20 -6 4 -53 13 -105 20 -52 6 -99 15 -105 19 -5 5 -64 16 -130 25 -66 9 -127 20 -137 25 -9 5 -56 14 -105 20 -48 6 -95 15 -104 20 -9 4 -51 13 -95 20 -43 6 -88 15 -99 20 -11 5 -74 16 -140 26 -66 9 -124 20 -130 24 -5 4 -53 13 -105 20 -52 7 -99 16 -105 20 -5 4 -53 13 -105 20 -52 7 -99 16 -105 20 -5 4 -66 16 -135 25 -69 10 -129 21 -135 25 -5 4 -50 13 -100 20 -49 6 -99 16 -110 20 -11 5 -56 14 -100 20 -44 7 -89 16 -100 20 -11 5 -72 16 -135 25 -63 9 -124 20 -135 25 -11 5 -60 14 -110 21 -49 7 -95 16 -100 20 -6 4 -66 15 -135 24 -69 10 -129 21 -135 25 -5 4 -53 13 -105 20 -52 7 -100 16 -105 21 -6 4 -51 13 -100 19 -50 7 -97 15 -105 18 -8 3 -33 10 -55 16 -37 10 -40 13 -37 41 2 17 8 35 12 40 5 6 16 53 26 105 9 52 20 100 24 105 5 6 14 39 20 75 7 36 16 70 20 75 4 6 13 42 20 80 7 39 16 75 21 80 4 6 15 53 25 105 9 52 20 100 24 105 5 6 14 39 20 75 7 36 16 70 21 75 4 6 13 42 20 80 6 39 15 75 19 80 5 6 16 51 25 100 9 50 20 97 25 106 5 9 14 45 21 80 6 35 16 68 20 74 5 5 9 15 9 21 0 7 4 23 9 37 9 23 10 23 78 12 37 -6 75 -14 83 -17z"/>
 </g>

</svg>